# xmcd
#
# Track frame offsets:
#	150
#	12673
#	30856
#	51831
#	63998
#	82217
#	99493
#	113211
#	133952
#	155794
#	174789
#
# Disc length: 2695 seconds
#
# Revision: 1
# Processed by: cddbd v1.5.2PL0 Copyright (c) Steve Scherf et al.
# Submitted via: audiograbber 1.83.01
#
DISCID=900a850b
DTITLE=John Nemeth - Love Me Tonight
DYEAR=2009
DGENRE=Blues
TTITLE0=Love Me Tonight
TTITLE1=Just Like You
TTITLE2=Fuel For Your Fire
TTITLE3=Too Good To Be True
TTITLE4=Daughter Of The Devil
TTITLE5=My Troubled Mind
TTITLE6=Where You Been
TTITLE7=She's My Heart's Desire
TTITLE8=Love Gone Crazy
TTITLE9=Country Boy
TTITLE10=Blues In My Heart
EXTD=
EXTT0=
EXTT1=
EXTT2=
EXTT3=
EXTT4=
EXTT5=
EXTT6=
EXTT7=
EXTT8=
EXTT9=
EXTT10=
PLAYORDER=
